<svg xmlns="http://www.w3.org/2000/svg" xml:space="preserve" style="fill-rule:evenodd;clip-rule:evenodd;stroke-linejoin:round;stroke-miterlimit:2" viewBox="0 0 600 133"><path d="M478.466 86.611c-.375 1.753.855 4.081-1.806 4.505-4.405.702-6.039-5.343-9.123-2.654-.696.607-7.68 6.699-11.364 2.048-1.13-1.427-1.345-1.452-3.055-.861-7.418 2.563-6.685-3.636-8.039-4.021-4.441-1.264-4.927 3.857-7.607 5.043-5.127 2.269-2.831-5.232-4.099-5.619-3.627-1.107-3.375.447-5.343 3.719-1.708 2.84-5.655 2.157-5.602-1.774.095-7.14-2.181 3.583-9.601 4.897-7.126 1.262-8.901-5.279-9.131-6.128-.445-1.639-5.353-.826-5.649-.713-.68.26-.79.428-1.511 8.972-.1 1.184.552.622 1.653.262 2.436-.798 4.878 3.467-.166 5.962-9.611 4.752-5.418-12.411-5.481-13.849-.057-1.302-2.636-1.013-7.884-.637-2.837.203-5.924 10.249-8.222 11.146-4.693 1.834-2.93-6.955-2.843-10.485.041-1.653-2.306-2.832-.579-5.223 2.374-3.286.137-21.619-.091-23.484-.208-1.703-3.929-5.33-.434-7.385 6.579-3.869 6 20.83 6.225 21.481.249.718.537.455 9.476-.559.968-.11 3.634-1.565 5.207-1.03 1.424.484 3.218 1.094 18.788.784 1.613-.032.183-3.625 2.948-4.512 3.784-1.214 6.825 4.177 7.196 4.476.737.595 9.697.61 9.766.595.542-.12 7.286-7.366 9.269-1.501 1.902 5.624 5.474-1.795 8.724 1.342 2.695 2.601 9.789 1.425 10.502.709 5.338-5.372 5.708-.374 7.407.549.872.473 19.829.301 21.553.285 1.411-.013 2.874-2.375 4.271-3.267 9.253-5.912 6.901 11.122 7.097 17.305.051 1.609 4.088 5.229.316 6.364-4.704 1.415-4.408-6.233-6.418-6.145-3.526.155-3.487.19-7.032.013-2.845-.142-1.922 2.083-4.687 2.686-3.017.658-1.692-2.317-4.631-3.297Zm-97.293-7.565c.232-.073 2.359-.746 2.294-1.99-.081-1.564-6.7 1.263-2.294 1.99m9.923-1.069c1.08-.336 1.097-.294 1.166-.362 1.474-1.453-1.662-2.067-2.694-.439-.652 1.028.344.611 1.528.801m89.34 2.046.057-1.117c-.276-.511-4.063-.579-4.42-.586-1.965-.035-2.739 3.184-1.159 3.326 3.405.306 4.614 1.695 5.521-1.624Zm-18.516 5.975c-3.112-.232-1.803 1.4-1.631 1.426.49.074 1.624-.502 1.626-.507.108-.287-.103-.632.005-.919m-49.715-1.444c-1.994.172-3.055-.706-2.918 1.286.227 3.298 8.888-1.145 5.329-1.347-.803-.046-1.608.107-2.411.062Zm32.963-5.044c-.33 2.306.943 1.144 1.021 1.056.451-.509-.005-1.577-.493-1.497-.226.037-.302.404-.528.441m47.919 3.042c.262-.042 2.903-.47 3.016-1.381.025-.201.264-2.141-.666-2.441-2.779-.895-4.239 1.132-4.458 1.436-2.624 3.642 1.203 2.336 2.109 2.386Zm-26.979-1.206c3.749-.274 2.359-3.613 1.158-3.284-2.06.564-2.051.618-4.068.083-1.286-.341-2.492 2.995-1.216 3.097 2.064.165 2.024.051 4.126.105Zm-31.659-2.663c-2.756 1.051.276 2.19 1.163 1.274.919-.949.11-1.118-1.163-1.274m18.777 2.281c.756-.024 2.571.838 3.512-2.154.512-1.625-5.62-1.853-5.669.59-.041 2.01 1.856 1.512 2.157 1.564m-43.39-5.538c-4.948.13-10.224.317-11.113.348-1.595.056-1.59 1.559.009 1.554 8.306-.026 11.258-.733 12.211-.962.001-.195.325-.292.326-.487.001-.408-1.313-.45-1.433-.454ZM58.949 75.917c-1.699 20.811-2.878 22.002-4.214 23.35-6.198 6.258-11.192-14.734-12.069-18.162-5.533-21.628-5.819-29.457-8.227-31.242-2.374-1.76-3.371-6.626-1.254-8.459 5.916-5.122 7.961 13.18 13.671 36.748 3.544 14.63 4.313 15.18 5.424 14.612.497-.254 1.105-23.426 5.521-26.724 7.129-5.323 5.431 17.969 12.901 23.774 4.98 3.87 10.467-18.146 9.959-35.618-.086-2.961 1.069-4.612-1.874-4.248-5.19.642-2.042-9.469 2.974-7.525 8.992 3.485 1.825 65.148-14.514 50.85-6.265-5.482-7.304-17.739-7.447-17.743-.174-.005-.159.409-.333.404l-.518-.019ZM129.512 60.056c-.009.417-.105 4.937.311 5.198.162.102 9.725-3.181 10.059-3.953 1.089-2.521.778-17.891 2.168-18.867 7.211-5.06 1.847 16.995 3.583 17.538.77.241 16.989-3.962 15.315 1.877-.811 2.83-11.049 1.186-15.91 3.515-.436.209-.791.251-2.901 16.38-1.829 13.978-.431 18.28-4.146 17.567-2.917-.56-2.574-3.47.927-29.905.113-.856.649-2.622-1.517-1.738-4.681 1.911-8.08 2.588-8.178 4.696-1.13 24.318 1.092 29.247-2.383 29.686-3.003.379-3.062-2.947-2.712-19.721.075-3.575.684-9.091-.71-8.545-1.363.534-5.913 6.124-7.328 2.187-1.675-4.66 8.245-6.889 8.387-8.887.002-.028.548-22.644.118-23.519-1.766-3.6.624 7.244-4.16 5.31-4.936-1.995 2.392-18.601 7.409-10.967 1.872 2.848 1.696 14.746 1.669 22.148ZM237.171 79.36l.49.426c.355-.14.448.104.641-.253 7.239-13.364 12.16-2.511 12.523-1.24 4.184 14.667-12.621 24.793-17.152 20.269-.74-.739-1.226-5.114-1.117-5.665.919-4.62-.487-22.53-.41-36.948.015-2.759 3.494-3.519 4.584-1.051.352.797.623 20.943.44 24.463Zm1.428 12.877c-.26 1.498-.783 1.9.087 2.026 2.588.375 10.683-8.526 7.177-15.5-.55-1.094-2.714-1.12-7.264 13.475ZM330.768 72.049c6.466.995 2.671 8.119 2.034 9.812-1.739 4.626 8.354 7.388 9.391 8.854 2.156 3.049-2.52 6.301-11.328-1.476-2.743-2.422-2.357.954-7.855 5.209-8.941 6.919-18.101.234-9.054-13.759 7.772-12.02 13.118-8.289 16.812-8.639Zm-13.917 13.287c-.221.508-3.307 7.579-.158 6.919 1.397-.293 10.461-5.296 9.559-11.134-.336-2.173.714-6.695-3.53-3.282-3.783 3.042-3.328 3.409-5.871 7.497" style="fill:#010101"/><path d="M427.443 10.523c.628.057 6.669.6 7.207 3.206.299 1.448-.838 3.433-3.205 2.633-3.494-1.181-4.025-2.408-15.652 2.263-8.144 3.271-4.951 5.878-5.706 8.112-.869 2.573-.39 2.609-.277 4.028.256 3.225-.763 8.474.685 7.177 3.439-3.08 19.447-8.148 20.579-3.699.91 3.576-3.533 2.604-10.045 4.263-8.849 2.254-8.037 5.612-10.596 4.617-3.485-1.354-1.023 8.848-4.185 10.225-6.98 3.04.843-18.152-1.925-21.792-2.466-3.243.829-3.489.729-7.827-.183-7.934 14.55-12.66 22.391-13.207Z" style="fill:#020202"/><path d="M265.972 101.111c1.666-10.36 1.923-10.264 2.02-11.166.137-1.287-.582-.735-1.771-.261-8.676 3.463-15.317-5.958-10.32-8.86 3.568-2.072 3.855 2.863 3.878 3.268.055.943 1.94 1.991 4.208 1.22 8.268-2.811 8.084-14.375 11.74-17.588 2.627-2.309 7.03.824.4 12.171-3.581 6.128-6.594 26.844-6.147 34.058.327 5.285 4.045 6.031.923 8.042-1.443.929-8.493 1.965-4.93-20.885ZM430.04 45.437c2.282-9.765 10.198-10.481 12.144-9.627 4.335 1.904 8.567.312 11.506 4.408 7.394 10.303-23.776 20.442-23.651 5.219Zm12.018 2.66c2.677-.68 2.78-.347 5.173-1.737 3.54-2.055 3.051-4.769-1.044-4.692-1.7.032-2.327 5.21-5.537 1.617-3.939-4.41-6.037 2.236-5.698 3.338.496 1.611 6.525 1.486 7.106 1.474" style="fill:#010101"/><path d="M182.839 73.059c-.298.059-.606-.165-.904-.107-1.276.252-6.105 14.491-6.544 15.786-1.455 4.291-5.121 2.594-5.049-.555.314-13.726.84-15.077 5.145-15.192 2.203-.059 4.305-8.282 8.844-7.316 8.267 1.759-3.836 24.571 9.902 22.992 3.489-.401 3.445 6.258-2.883 5.099-11.36-2.081-8.881-16.205-8.511-20.707"/><path d="M534.921 86.966c3.519 10.086 12.188-9.093 16.616-2.806.953 1.353-.473 7.556 4.082 4.384 9.524-6.633 4.908-10.845 7.762-12.075 5.447-2.347 5.658 8.474-4.277 15.581-6.397 4.576-10.104 1.113-10.724.08-.821-1.367-.629-2.494-1.973-1.57-4.135 2.844-3.813 3.926-8.81 4.038-11.858.266-8.019-22.402-1.346-15.611 2.673 2.72-1.516 3.546-1.455 6.265.013.573.112 1.141.125 1.714M163.746 92.029c.201.013 1.9.119 2.37.841 3.376 5.183-8.879 5.886-12.942-.551-2.412-3.821-.063-6.529-4.054-6.39-2.369.083-3.409-3.808-.569-4.74 2.843-.933 2.818-1.232 3.64-4.096 3.671-12.794 17.444-14.951 14.322-5.964-2.537 7.304-10.614 11.291-10.567 13.539.176 8.509 7.161 7.378 7.801 7.36Zm-4.671-19.086c-.068.088-2.525 5.149.645 1.233.072-.089.706-.872.69-1.252-.04-.938-.474-.33-1.335.018ZM473.967 51.301c-2.748 7.154-6.81-5.298-8.982-3.493-.859.714-6.636 7.776-8.065 2.826-.854-2.959 6.827-6.444 5.535-8.662-1.469-2.522-5.416-2.447-3.432-5.975.689-1.224 3.621-2.17 6.211 1.429 1.27 1.765 1.69 1.927 3.425.646 7.072-5.222 8.144 4.653 3.896 4.972-.169.013-4.293-.885-2.065 2.171 2.421 3.318 3.178 3.992 3.475 6.087ZM88.523 81.152c.015-.318.156-3.197 1.038-3.843 2.942-2.152 2.007-3.29 4.597-10.175 4.169-11.085 9.171-7.264 8.753-4.719-.34 2.067-2.482.978-5.13 8.852-5.465 16.252-3.164 19.55-5.603 20.786-4.377 2.217-3.629-9.338-3.655-10.901M490.987 36.649c-.011.082.093 4.026-2.048 4.568-3.302.836-2.973-3.067-2.943-3.427.696-8.259 1.702-10.97 1.006-15.791-.377-2.614 2.241-3.674 3.618-2.781 1.964 1.274 2.026 4.188.368 17.431Z" style="fill:#010101"/><path d="M549.001 65.344c-.006.243.528 4.045-1.519 5.09-4.799 2.45-3.246-8.859-2.57-14.44 1.237-10.212 6.062-7.249 6.354-5.342.18 1.176-1.089.988-2.265 14.692M105.552 85.314c-.116-.512-1.101-4.856-.475-6.545.084-.227.646-1.744 2.442-1.791 3.673-.097 2.244 4.642 2.259 4.768.762 6.367 5.892 12.944 3.945 14.996-4.104 4.326-7.931-10.734-8.17-11.427Z" style="fill:#020202"/><path d="M558.459 67.665c-.003.024.243 3.005-1.638 3.825-.982.428-3.284-.087-3.201-2.642.328-10.115-.195-16.575 3.791-14.946 2.161.883 1.692 2.886 1.627 3.163-.545 2.328-.31 2.338-.58 10.601ZM111.881 57.135c-2.23 8.304-12.59-8.397-4.931-7.138 2.446.402 1.561 1.522 4.445 5.525.386.535.258.544.486 1.613" style="fill:#010101"/><path d="M491.533 50.096c-.979 6.019-7.069.907-4.397-2.989.191-.278 1.36-1.315 2.994-.513 1.062.522 1.369 3.201 1.403 3.501Z" style="fill:#020202"/></svg>