<svg xmlns="http://www.w3.org/2000/svg" xml:space="preserve" style="fill-rule:evenodd;clip-rule:evenodd;stroke-linejoin:round;stroke-miterlimit:2" viewBox="0 0 600 133"><path d="M58.949 75.917c-1.699 20.811-2.878 22.002-4.214 23.35-6.198 6.258-11.192-14.734-12.069-18.162-5.533-21.628-5.819-29.457-8.227-31.242-2.374-1.76-3.371-6.626-1.254-8.459 5.916-5.122 7.961 13.18 13.671 36.748 3.544 14.63 4.313 15.18 5.424 14.612.497-.254 1.105-23.426 5.521-26.724 7.129-5.323 5.431 17.969 12.901 23.774 4.98 3.87 10.467-18.146 9.959-35.618-.086-2.961 1.069-4.612-1.874-4.248-5.19.642-2.042-9.469 2.974-7.525 8.992 3.485 1.825 65.148-14.514 50.85-6.265-5.482-7.304-17.739-7.447-17.743-.174-.005-.159.409-.333.404l-.518-.019ZM129.512 60.056c-.009.417-.105 4.937.311 5.198.162.102 9.725-3.181 10.059-3.953 1.089-2.521.778-17.891 2.168-18.867 7.211-5.06 1.847 16.995 3.583 17.538.77.241 16.989-3.962 15.315 1.877-.811 2.83-11.049 1.186-15.91 3.515-.436.209-.791.251-2.901 16.38-1.829 13.978-.431 18.28-4.146 17.567-2.917-.56-2.574-3.47.927-29.905.113-.856.649-2.622-1.517-1.738-4.681 1.911-8.08 2.588-8.178 4.696-1.13 24.318 1.092 29.247-2.383 29.686-3.003.379-3.062-2.947-2.712-19.721.075-3.575.684-9.091-.71-8.545-1.363.534-5.913 6.124-7.328 2.187-1.675-4.66 8.245-6.889 8.387-8.887.002-.028.548-22.644.118-23.519-1.766-3.6.624 7.244-4.16 5.31-4.936-1.995 2.392-18.601 7.409-10.967 1.872 2.848 1.696 14.746 1.669 22.148ZM237.171 79.36l.49.426c.355-.14.448.104.641-.253 7.239-13.364 12.16-2.511 12.523-1.24 4.184 14.667-12.621 24.793-17.152 20.269-.74-.739-1.226-5.114-1.117-5.665.919-4.62-.487-22.53-.41-36.948.015-2.759 3.494-3.519 4.584-1.051.352.797.623 20.943.44 24.463Zm1.428 12.877c-.26 1.498-.783 1.9.087 2.026 2.588.375 10.683-8.526 7.177-15.5-.55-1.094-2.714-1.12-7.264 13.475ZM330.768 72.049c6.466.995 2.671 8.119 2.034 9.812-1.739 4.626 8.354 7.388 9.391 8.854 2.156 3.049-2.52 6.301-11.328-1.476-2.743-2.422-2.357.954-7.855 5.209-8.941 6.919-18.101.234-9.054-13.759 7.772-12.02 13.118-8.289 16.812-8.639Zm-13.917 13.287c-.221.508-3.307 7.579-.158 6.919 1.397-.293 10.461-5.296 9.559-11.134-.336-2.173.714-6.695-3.53-3.282-3.783 3.042-3.328 3.409-5.871 7.497M265.972 101.111c1.666-10.36 1.923-10.264 2.02-11.166.137-1.287-.582-.735-1.771-.261-8.676 3.463-15.317-5.958-10.32-8.86 3.568-2.072 3.855 2.863 3.878 3.268.055.943 1.94 1.991 4.208 1.22 8.268-2.811 8.084-14.375 11.74-17.588 2.627-2.309 7.03.824.4 12.171-3.581 6.128-6.594 26.844-6.147 34.058.327 5.285 4.045 6.031.923 8.042-1.443.929-8.493 1.965-4.93-20.885Z" style="fill:white"/><path d="M182.839 73.059c-.298.059-.606-.165-.904-.107-1.276.252-6.105 14.491-6.544 15.786-1.455 4.291-5.121 2.594-5.049-.555.314-13.726.84-15.077 5.145-15.192 2.203-.059 4.305-8.282 8.844-7.316 8.267 1.759-3.836 24.571 9.902 22.992 3.489-.401 3.445 6.258-2.883 5.099-11.36-2.081-8.881-16.205-8.511-20.707" style="fill:white"/><path d="M534.921 86.966c3.519 10.086 12.188-9.093 16.616-2.806.953 1.353-.473 7.556 4.082 4.384 9.524-6.633 4.908-10.845 7.762-12.075 5.447-2.347 5.658 8.474-4.277 15.581-6.397 4.576-10.104 1.113-10.724.08-.821-1.367-.629-2.494-1.973-1.57-4.135 2.844-3.813 3.926-8.81 4.038-11.858.266-8.019-22.402-1.346-15.611 2.673 2.72-1.516 3.546-1.455 6.265.013.573.112 1.141.125 1.714M163.746 92.029c.201.013 1.9.119 2.37.841 3.376 5.183-8.879 5.886-12.942-.551-2.412-3.821-.063-6.529-4.054-6.39-2.369.083-3.409-3.808-.569-4.74 2.843-.933 2.818-1.232 3.64-4.096 3.671-12.794 17.444-14.951 14.322-5.964-2.537 7.304-10.614 11.291-10.567 13.539.176 8.509 7.161 7.378 7.801 7.36Zm-4.671-19.086c-.068.088-2.525 5.149.645 1.233.072-.089.706-.872.69-1.252-.04-.938-.474-.33-1.335.018ZM88.523 81.152c.015-.318.156-3.197 1.038-3.843 2.942-2.152 2.007-3.29 4.597-10.175 4.169-11.085 9.171-7.264 8.753-4.719-.34 2.067-2.482.978-5.13 8.852-5.465 16.252-3.164 19.55-5.603 20.786-4.377 2.217-3.629-9.338-3.655-10.901" style="fill:white"/><path d="M549.001 65.344c-.006.243.528 4.045-1.519 5.09-4.799 2.45-3.246-8.859-2.57-14.44 1.237-10.212 6.062-7.249 6.354-5.342.18 1.176-1.089.988-2.265 14.692M105.552 85.314c-.116-.512-1.101-4.856-.475-6.545.084-.227.646-1.744 2.442-1.791 3.673-.097 2.244 4.642 2.259 4.768.762 6.367 5.892 12.944 3.945 14.996-4.104 4.326-7.931-10.734-8.17-11.427Z" style="fill:white"/><path d="M558.459 67.665c-.003.024.243 3.005-1.638 3.825-.982.428-3.284-.087-3.201-2.642.328-10.115-.195-16.575 3.791-14.946 2.161.883 1.692 2.886 1.627 3.163-.545 2.328-.31 2.338-.58 10.601ZM111.881 57.135c-2.23 8.304-12.59-8.397-4.931-7.138 2.446.402 1.561 1.522 4.445 5.525.386.535.258.544.486 1.613M441.314 75.932l.463.455c.098-.115.354.142.452.027.325-.382.518-1.767 3.132-4.376.481-.48 6.239-5.522 5.763 6.237-.062 1.522-.767 7.102.459 6.767 3.546-.968 3.683-1.337 3.798-1.648 2.215-5.979 1.413-6.362 5.17-11.265 3.894-5.081 8.553-.504 6.768 5.012-1.001 3.094-4.569.344-5.05 1.296-2.652 5.25-3.97 11.221.7 7.657 7.979-6.089 5.288-11.041 9.504-10.298 1.171.206 3.091 1.918 1.449 5.243-2.997 6.069 3.388 3.841 4.528 6.977 1.142 3.139-2.751 4.941-7.703.63-3.442-2.996-3.499 2.762-10.452 3.661-3.53.456-4.596-3.534-5.835-3.181-3.56 1.014-3.583 2.017-6.4.873-4.561-1.852.377-15.359-3.296-9.33-.789 1.295-7.814 15.025-10.876 9.071-1.331-2.588 7.941-26.149-1.719-8.436-.065.119-6.088 14.092-9.314 7.87-1.005-1.938.845-10.421-1.611-4.187-3.468 8.804-16.235 8.902-17.522 1.36-.782-4.582 5.706-5.622 5.604-1.707-.197 7.522 11.547-1.638 8.982-10.322-.408-1.38-5.375.519-5.288-4.73.081-4.88 9.456-5.076 10.407 6.918.137 1.733 1.883-.178 3.662 2.018 1.377 1.699 2.447-4.308 7.903-9.307 1.511-1.384 8.472-4.335 6.321 6.713ZM379.118 83.902c.557-.765 9.998-18.621 16.177-12.445 3.432 3.431 1.838 16.905 1.665 18.37-.475 4.012-1.042 5.568.8 4.706 4.131-1.932 4.474 5.533-1.726 6.473-8.374 1.269-1.862-14.235-3.687-24.975-.82-4.825-14.913 20.237-15.506 20.691-1.534 1.173-3.997.159-3.865-2.236.17-3.09 1.934-35.087-.857-38.679-4.038-5.198 2.735-7.64 4.243-3.611 2.941 7.862 2.323 28.113 1.952 30.689-.073.505-.068.511-.041.545.338.427.529.072.846.472ZM484.021 75.713c.461.113.985-.124 2.121 1.076 1.559 1.645 3.071-3.418 7.184-6.581 10.183-7.833 7.435 12.366 7.699 16.732.107 1.769 4.092 5.279.408 6.486-7.764 2.544-4.336-17.834-5.301-18.572-2.321-1.776-9.605 16.781-14.448 15.064-2.412-.855-3.119-12.768 2.337-14.205" style="fill:white"/></svg>